# xmcd CD database file
#
# Track frame offsets:
#	150
#	20808
#	32905
#
# Disc length: 712 seconds
#
# Revision: 0
# Processed by: cddbd v1.5.1PL2 Copyright (c) Steve Scherf et al.
# Submitted via: CDex 1.51
#
DISCID=2102c603
DTITLE=刀根麻理子 - トランタンな恋の形〜テレビ東京系「もっと素敵に！」エンディングテーマ〜
DYEAR=1994
DGENRE=JPop
TTITLE0=トランタンな恋の形
TTITLE1=ＴＨＥ　ＣＩＴＹ　ＯＦ　ＰＲＯＭＩＳＥ〜ＩＮＳＴＲＵＭＥＮＴＡＬ〜
TTITLE2=トランタンな恋の形（Ｏｒｉｇｉｎａｌ　Ｋａｒａｏｋｅ）
EXTD=YEAR: 1994/2/21
EXTT0=
EXTT1=
EXTT2=
PLAYORDER=
